<svg xmlns="http://www.w3.org/2000/svg" width="143" height="29" viewBox="0 0 143 29" fill="none">
  <path d="M2.00365 7.54392C0.148221 8.8245 0.739587 12.0545 0.527871 13.7997C0.0965645 17.3549 1.33022 23.1452 4.81764 24C11.2064 25.566 16.7092 25.0973 23.0065 26.922C26.7383 28.0034 34.143 27.9321 38.1395 28.1093C44.7052 28.4003 51.2714 28.7877 57.8506 28.9511C66.099 29.1559 74.3938 28.6625 82.6586 28.4864C89.3147 28.3446 96.0409 28.1515 102.695 27.7942C110.97 27.3499 119.372 26.525 127.588 25.4817C130.402 25.1243 133.754 24.6093 136.097 23.1292C137.38 22.3194 138.47 21.1722 139.372 20.0979C140.623 18.6089 141.043 15.9748 141.529 14.3033C141.938 12.8935 142.034 11.4529 142.207 10.0234C142.451 8.01245 142.675 5.97787 142.302 3.99376C141.922 1.97397 138.11 0.936339 135.228 0.808572C126.504 0.421845 121.878 0.381976 113.134 0.178771C96.8316 -0.20012 80.5033 0.290867 64.2078 0.0213085C56.1879 -0.111355 48.22 0.410569 40.2003 0.617248C34.0075 0.776845 27.8286 1.02812 21.6643 1.74305C14.4575 2.5789 7.77668 3.55949 2.00365 7.54392Z" fill="#00992C"/>
</svg>
